<svg width="147" height="32" viewBox="0 0 147 32" fill="none" xmlns="http://www.w3.org/2000/svg">
	<circle cx="16" cy="16" r="16" fill="white" fill-opacity="0.88"/>
	<path fill-rule="evenodd" clip-rule="evenodd" d="M16.0009 2.82227C14.9613 2.82227 14.1185 3.66502 14.1185 4.70462V27.2929C14.1185 28.3325 14.9613 29.1752 16.0009 29.1752C17.0405 29.1752 17.8832 28.3325 17.8832 27.2929V4.70462C17.8832 3.66502 17.0405 2.82227 16.0009 2.82227ZM6.58887 16.0012C6.58887 12.1421 8.91152 8.82541 12.2352 7.3729V24.6295C8.91152 23.177 6.58887 19.8603 6.58887 16.0012ZM25.4124 16.0012C25.4124 19.8609 23.089 23.178 19.7646 24.6301V7.37224C23.089 8.82441 25.4124 12.1415 25.4124 16.0012Z" fill="#231B3A"/>
	<path d="M41.0566 18.5566H45.3535C46.3431 18.5566 47.209 18.3581 47.9512 17.9609C48.6934 17.5638 49.2695 17.0039 49.6797 16.2812C50.0964 15.5586 50.3047 14.7122 50.3047 13.7422V13.7227C50.3047 12.7591 50.0964 11.916 49.6797 11.1934C49.2695 10.4707 48.6934 9.91081 47.9512 9.51367C47.209 9.11003 46.3431 8.9082 45.3535 8.9082H41.0566V11.2422H44.6309C45.4772 11.2422 46.1348 11.457 46.6035 11.8867C47.0788 12.3164 47.3164 12.9316 47.3164 13.7324V13.752C47.3164 14.5527 47.0788 15.1712 46.6035 15.6074C46.1348 16.0371 45.4772 16.252 44.6309 16.252H41.0566V18.5566ZM39.582 23H42.5312V8.9082H39.582V23ZM52.1996 23H55.0512V8.32227H52.1996V23ZM60.325 23.166C60.7938 23.166 61.2267 23.1042 61.6238 22.9805C62.021 22.8503 62.3725 22.6647 62.6785 22.4238C62.9845 22.1764 63.2286 21.8835 63.4109 21.5449H63.5574V23H66.3797V15.6953C66.3797 14.9466 66.2039 14.3021 65.8523 13.7617C65.5008 13.2214 64.993 12.8079 64.3289 12.5215C63.6648 12.235 62.8608 12.0918 61.9168 12.0918C61.0184 12.0918 60.2306 12.2253 59.5535 12.4922C58.8764 12.7526 58.3393 13.1204 57.9422 13.5957C57.5516 14.071 57.3204 14.6276 57.2488 15.2656L57.2391 15.3633H59.866L59.8855 15.3145C59.9897 14.9889 60.2013 14.735 60.5203 14.5527C60.8393 14.3639 61.2592 14.2695 61.7801 14.2695C62.3595 14.2695 62.799 14.3997 63.0984 14.6602C63.4044 14.9141 63.5574 15.2754 63.5574 15.7441V19.1133C63.5574 19.4844 63.4565 19.8197 63.2547 20.1191C63.0594 20.4186 62.7892 20.6562 62.4441 20.832C62.1056 21.0013 61.7182 21.0859 61.282 21.0859C60.7872 21.0859 60.3836 20.972 60.0711 20.7441C59.7651 20.5098 59.6121 20.194 59.6121 19.7969V19.7773C59.6121 19.3867 59.7586 19.0807 60.0516 18.8594C60.351 18.6315 60.797 18.498 61.3895 18.459L64.9832 18.2246V16.4863L60.9695 16.7207C59.6414 16.8053 58.616 17.1243 57.8934 17.6777C57.1772 18.2246 56.8191 18.9798 56.8191 19.9434V19.9531C56.8191 20.5977 56.9689 21.1641 57.2684 21.6523C57.5678 22.1341 57.9813 22.5085 58.5086 22.7754C59.0359 23.0358 59.6414 23.166 60.325 23.166ZM69.6906 26.7109C70.55 26.7109 71.2889 26.5938 71.9074 26.3594C72.5259 26.1315 73.0533 25.7507 73.4895 25.2168C73.9257 24.6829 74.2967 23.957 74.6027 23.0391L78.2453 12.3164H75.2375L72.718 21.4766L73.2844 20.4707H72.5129L73.0988 21.4766L70.5793 12.3164H67.4445L71.2043 23L71.0969 23.4004C70.9927 23.7975 70.7974 24.0905 70.5109 24.2793C70.2245 24.4681 69.8371 24.5625 69.3488 24.5625C69.1991 24.5625 69.0526 24.556 68.9094 24.543C68.7727 24.5365 68.6555 24.5299 68.5578 24.5234V26.6523C68.7271 26.6719 68.9094 26.6849 69.1047 26.6914C69.3 26.7044 69.4953 26.7109 69.6906 26.7109ZM83.9488 26.7402C85.0296 26.7402 85.9605 26.5742 86.7418 26.2422C87.5296 25.9102 88.1383 25.4382 88.568 24.8262C88.9977 24.2207 89.2125 23.5046 89.2125 22.6777V12.3164H86.3609V14.084H86.2438C86.0549 13.6738 85.8043 13.3255 85.4918 13.0391C85.1793 12.7461 84.8147 12.5215 84.398 12.3652C83.9879 12.209 83.5354 12.1309 83.0406 12.1309C82.1357 12.1309 81.3544 12.3522 80.6969 12.7949C80.0458 13.2311 79.5413 13.8464 79.1832 14.6406C78.8316 15.4284 78.6559 16.3594 78.6559 17.4336V17.4434C78.6559 18.4785 78.8316 19.3835 79.1832 20.1582C79.5348 20.9329 80.0328 21.5352 80.6773 21.9648C81.3284 22.3945 82.1031 22.6094 83.0016 22.6094C83.4964 22.6094 83.9521 22.541 84.3688 22.4043C84.7854 22.2676 85.15 22.069 85.4625 21.8086C85.775 21.5417 86.0289 21.2227 86.2242 20.8516H86.3707V22.7559C86.3707 23.3743 86.1624 23.8529 85.7457 24.1914C85.3355 24.5365 84.7529 24.709 83.9977 24.709C83.3727 24.709 82.8746 24.6113 82.5035 24.416C82.1389 24.2272 81.9143 23.9831 81.8297 23.6836L81.8102 23.6348H78.9977V23.6934C79.0823 24.2923 79.3264 24.8197 79.7301 25.2754C80.1402 25.7376 80.7001 26.0957 81.4098 26.3496C82.1194 26.61 82.9658 26.7402 83.9488 26.7402ZM83.9684 20.4414C83.4671 20.4414 83.0374 20.3177 82.6793 20.0703C82.3212 19.8229 82.0478 19.4746 81.859 19.0254C81.6702 18.5762 81.5758 18.0521 81.5758 17.4531V17.4434C81.5758 16.8444 81.6702 16.3203 81.859 15.8711C82.0478 15.4219 82.3212 15.0736 82.6793 14.8262C83.0374 14.5788 83.4671 14.4551 83.9684 14.4551C84.4697 14.4551 84.8994 14.5788 85.2574 14.8262C85.622 15.0736 85.902 15.4219 86.0973 15.8711C86.2926 16.3203 86.3902 16.8444 86.3902 17.4434V17.4629C86.3902 18.0553 86.2926 18.5762 86.0973 19.0254C85.902 19.4746 85.622 19.8229 85.2574 20.0703C84.8994 20.3177 84.4697 20.4414 83.9684 20.4414ZM91.4297 23H94.2812V17.0234C94.2812 16.5156 94.3822 16.0827 94.584 15.7246C94.7923 15.36 95.0853 15.0801 95.4629 14.8848C95.847 14.6895 96.2995 14.5918 96.8203 14.5918C97.0417 14.5918 97.2565 14.6081 97.4648 14.6406C97.6797 14.6667 97.8815 14.7057 98.0703 14.7578V12.2676C97.9336 12.2285 97.7773 12.196 97.6016 12.1699C97.4258 12.1439 97.2467 12.1309 97.0645 12.1309C96.3874 12.1309 95.821 12.2969 95.3652 12.6289C94.9095 12.9609 94.597 13.4264 94.4277 14.0254H94.2812V12.3164H91.4297V23ZM103.891 23.2246C104.985 23.2246 105.926 23.0033 106.713 22.5605C107.501 22.1178 108.107 21.4798 108.53 20.6465C108.953 19.8132 109.164 18.8171 109.164 17.6582V17.6387C109.164 16.4863 108.95 15.4967 108.52 14.6699C108.097 13.8431 107.491 13.2083 106.704 12.7656C105.916 12.3164 104.978 12.0918 103.891 12.0918C102.81 12.0918 101.876 12.3164 101.088 12.7656C100.301 13.2083 99.6918 13.8464 99.2621 14.6797C98.8324 15.5065 98.6176 16.4928 98.6176 17.6387V17.6582C98.6176 18.8171 98.8292 19.8132 99.2523 20.6465C99.6755 21.4798 100.281 22.1178 101.069 22.5605C101.863 23.0033 102.804 23.2246 103.891 23.2246ZM103.891 20.9883C103.396 20.9883 102.973 20.8581 102.621 20.5977C102.27 20.3372 102 19.9596 101.811 19.4648C101.629 18.9635 101.537 18.3646 101.537 17.668V17.6484C101.537 16.9518 101.632 16.3561 101.821 15.8613C102.01 15.3665 102.28 14.9889 102.631 14.7285C102.983 14.4616 103.403 14.3281 103.891 14.3281C104.386 14.3281 104.809 14.4616 105.161 14.7285C105.512 14.9889 105.782 15.3665 105.971 15.8613C106.16 16.3561 106.254 16.9518 106.254 17.6484V17.668C106.254 18.3646 106.16 18.9603 105.971 19.4551C105.782 19.9499 105.512 20.3307 105.161 20.5977C104.815 20.8581 104.392 20.9883 103.891 20.9883ZM114.438 23.2246C115.213 23.2246 115.867 23.0553 116.401 22.7168C116.935 22.3783 117.326 21.916 117.573 21.3301H117.72V23H120.571V12.3164H117.72V18.4883C117.72 18.957 117.635 19.3704 117.466 19.7285C117.296 20.0866 117.052 20.3665 116.733 20.5684C116.414 20.7637 116.027 20.8613 115.571 20.8613C114.901 20.8613 114.412 20.6693 114.106 20.2852C113.8 19.8945 113.647 19.3281 113.647 18.5859V12.3164H110.796V19.2207C110.796 20.0671 110.932 20.7897 111.206 21.3887C111.486 21.9876 111.896 22.4434 112.436 22.7559C112.977 23.0684 113.644 23.2246 114.438 23.2246ZM122.788 23H125.64V16.8281C125.64 16.3464 125.724 15.9297 125.894 15.5781C126.063 15.2201 126.304 14.9434 126.616 14.748C126.935 14.5527 127.313 14.4551 127.749 14.4551C128.413 14.4551 128.905 14.6504 129.224 15.041C129.549 15.4251 129.712 15.9883 129.712 16.7305V23H132.564V16.0957C132.564 14.8197 132.248 13.8333 131.616 13.1367C130.991 12.4401 130.086 12.0918 128.902 12.0918C128.127 12.0918 127.476 12.2611 126.948 12.5996C126.428 12.9382 126.04 13.4004 125.786 13.9863H125.64V12.3164H122.788V23ZM138.541 23.1855C139.296 23.1855 139.95 23.0195 140.504 22.6875C141.063 22.3555 141.48 21.8965 141.754 21.3105H141.9V23H144.752V8.32227H141.9V14.0547H141.754C141.48 13.4622 141.06 12.9935 140.494 12.6484C139.927 12.3034 139.273 12.1309 138.531 12.1309C137.632 12.1309 136.858 12.3522 136.207 12.7949C135.562 13.2376 135.064 13.8724 134.713 14.6992C134.367 15.5195 134.195 16.5026 134.195 17.6484V17.668C134.195 18.8073 134.371 19.7904 134.722 20.6172C135.074 21.4375 135.575 22.0723 136.226 22.5215C136.877 22.9642 137.649 23.1855 138.541 23.1855ZM139.507 20.8223C139.013 20.8223 138.583 20.6953 138.218 20.4414C137.86 20.1875 137.584 19.8262 137.388 19.3574C137.193 18.8822 137.095 18.319 137.095 17.668V17.6484C137.095 16.9974 137.193 16.4375 137.388 15.9688C137.584 15.4935 137.86 15.1289 138.218 14.875C138.583 14.6211 139.013 14.4941 139.507 14.4941C139.996 14.4941 140.419 14.6211 140.777 14.875C141.142 15.1289 141.425 15.4935 141.627 15.9688C141.828 16.4375 141.929 16.9974 141.929 17.6484V17.668C141.929 18.319 141.828 18.8822 141.627 19.3574C141.431 19.8262 141.151 20.1875 140.787 20.4414C140.429 20.6953 140.002 20.8223 139.507 20.8223Z" fill="#F3F2F3"/>
</svg>
