<svg width="151" height="151" viewBox="0 0 151 151" fill="none" xmlns="http://www.w3.org/2000/svg">
  <path fill-rule="evenodd" clip-rule="evenodd" d="M75.5 151C117.197 151 151 117.197 151 75.5C151 33.8027 117.197 0 75.5 0C33.8027 0 0 33.8027 0 75.5C0 117.197 33.8027 151 75.5 151ZM75.5 15C70.8057 15 67 18.8057 67 23.5V127.5C67 132.194 70.8057 136 75.5 136C80.1943 136 84 132.194 84 127.5V23.5C84 18.8057 80.1943 15 75.5 15ZM53.001 74C53.001 101.614 53.001 102.5 52.501 120C52.0195 119.711 51.5234 119.417 51.0146 119.115C40.9502 113.148 26 104.285 26 78C26 50.3857 42.501 38 52.5 34.5C52.6289 40.0234 52.7246 43.4937 52.7959 46.0688C52.8506 48.0581 52.8906 49.5132 52.9199 50.9688C53.001 54.9634 53.001 58.96 53.001 74ZM98.5 34C98 51.5 98 52.3857 98 80C98 95.04 98 99.0366 98.0811 103.031C98.1484 106.371 98.2725 109.71 98.501 119.5C108.5 116 125.001 103.614 125.001 76C125.001 49.7153 110.051 40.8521 99.9863 34.8853C99.4775 34.5835 98.9814 34.2891 98.5 34Z" fill="white"/>
</svg>
