<svg width="633" height="633" viewBox="0 0 633 633" fill="none" xmlns="http://www.w3.org/2000/svg">
<path d="M316.333 0.613332C232.599 0.613332 152.293 33.8787 93.0933 93.0867C33.8933 152.295 0.619995 232.593 0.619995 316.327C2.3752 522.78 159.353 632.047 316.34 632.047C473.327 632.047 630.487 522.599 632.06 316.327L632.065 316.321C632.065 232.587 598.8 152.281 539.592 93.0815C480.384 33.8814 400.072 0.608124 316.339 0.608124L316.333 0.613332ZM156.72 546.813C169.506 499.761 202.397 460.751 246.611 440.199C290.824 419.647 341.851 419.647 386.064 440.199C430.272 460.751 463.168 499.761 475.949 546.813C429.127 579.459 373.419 596.964 316.336 596.964C259.257 596.964 203.544 579.459 156.723 546.813H156.72ZM218.111 291.6C218.111 265.548 228.46 240.564 246.881 222.147C265.303 203.725 290.288 193.376 316.335 193.376C342.387 193.376 367.371 203.725 385.793 222.147C404.209 240.563 414.559 265.548 414.559 291.6C414.559 317.652 404.21 342.636 385.793 361.053C367.372 379.475 342.387 389.824 316.335 389.824C290.288 389.824 265.304 379.475 246.881 361.053C228.46 342.637 218.111 317.652 218.111 291.6ZM505.244 523.307C485.4 468.583 442.875 425.099 388.604 404.036C421.073 383.088 442.855 349.088 448.307 310.839C453.765 272.584 442.354 233.849 417.036 204.667C391.713 175.479 354.979 158.713 316.339 158.713C277.703 158.713 240.964 175.479 215.645 204.667C190.328 233.849 178.916 272.584 184.369 310.839C189.822 349.089 211.609 383.089 244.072 404.036C189.807 425.099 147.28 468.583 127.432 523.307C85.5573 485.187 56.1867 435.291 43.192 380.173C30.192 325.053 34.1764 267.299 54.6087 214.48C75.046 161.668 110.983 116.272 157.697 84.2613C204.405 52.2453 259.713 35.116 316.337 35.116C372.967 35.116 428.269 52.2467 474.977 84.2613C521.69 116.272 557.627 161.668 578.059 214.48C598.497 267.292 602.475 325.048 589.481 380.173C576.486 435.288 547.117 485.184 505.236 523.307H505.244Z" fill="white"/>
<g clip-path="url(#clip0_1_8)">
<path fill-rule="evenodd" clip-rule="evenodd" d="M316 407C381.721 407 435 353.721 435 288C435 222.278 381.721 169 316 169C250.278 169 197 222.278 197 288C197 353.721 250.278 407 316 407ZM316 192.642C308.601 192.642 302.603 198.641 302.603 206.04V369.96C302.603 377.359 308.601 383.358 316 383.358C323.399 383.358 329.397 377.359 329.397 369.96V206.04C329.397 198.641 323.399 192.642 316 192.642ZM280.538 285.636C280.538 329.16 280.538 330.556 279.75 358.139C278.991 357.684 278.209 357.22 277.407 356.744C261.544 347.339 237.98 333.37 237.98 291.94C237.98 248.416 263.988 228.894 279.748 223.377C279.952 232.083 280.102 237.553 280.215 241.612C280.301 244.747 280.364 247.041 280.41 249.335C280.538 255.631 280.538 261.93 280.538 285.636ZM352.252 222.589C351.464 250.172 351.464 251.568 351.464 295.093C351.464 318.798 351.464 325.097 351.591 331.393C351.697 336.658 351.893 341.92 352.253 357.351C368.013 351.834 394.021 332.312 394.021 288.788C394.021 247.359 370.458 233.389 354.594 223.985C353.792 223.509 353.01 223.045 352.252 222.589Z" fill="white"/>
</g>
<defs>
<clipPath id="clip0_1_8">
<rect width="238" height="238" fill="white" transform="translate(197 169)"/>
</clipPath>
</defs>
</svg>
